# xmcd CD database file
#
# Track frame offsets:
#	150
#	1493
#	30287
#	54248
#	72738
#	87015
#	103912
#	118546
#	144098
#	158610
#
# Disc length: 2505 seconds
#
# Revision: 0
# Processed by: cddbd v1.5.1PL0 Copyright (c) Steve Scherf et al.
# Submitted via: CDex 1.51
#
DISCID=7309c70a
DTITLE=Working Blues Band - What´d he say - a tribute to Ray Charles
DYEAR=1900
DGENRE=Jazz
TTITLE0=Intro
TTITLE1=What´d I Say
TTITLE2=I BelieveTo My Soul
TTITLE3=I Got A Woman
TTITLE4=A Fool For You
TTITLE5=Halleluja, I Love Her So
TTITLE6=That´s Enough
TTITLE7=Questions
TTITLE8=This Little Girl Of Mine
TTITLE9=Hard Times
EXTD=
EXTT0=
EXTT1=
EXTT2=
EXTT3=
EXTT4=
EXTT5=
EXTT6=
EXTT7=
EXTT8=
EXTT9=
PLAYORDER=
